HIERARCHY
ROOT Hips
{
     OFFSET 8.64328 97.39810 33.61210
     CHANNELS 6 Xposition Yposition Zposition Zrotation Xrotation Yrotation
     JOINT Spine
     {
          OFFSET -0.00000 11.89050 0.00000
          CHANNELS 3 Zrotation Xrotation Yrotation
          JOINT Spine1
          {
               OFFSET -0.00000 25.65740 0.12766
               CHANNELS 3 Zrotation Xrotation Yrotation
               JOINT HEad
               {
                    OFFSET -0.00000 8.73416 0.01134
                    CHANNELS 3 Zrotation Xrotation Yrotation
                    End Site
                    {
                         OFFSET -0.29000 12.77420 2.51395
                    }
               }
               JOINT LeftShoulder1
               {
                    OFFSET 8.99000 -0.36225 -0.22000
                    CHANNELS 3 Zrotation Xrotation Yrotation
                    JOINT LeftArm
                    {
                         OFFSET 10.28270 -0.00338 0.32212
                         CHANNELS 3 Zrotation Xrotation Yrotation
                         JOINT LeftForeArm
                         {
                              OFFSET 32.76690 0.09914 -1.42434
                              CHANNELS 3 Zrotation Xrotation Yrotation
                              JOINT LeftHand
                              {
                                   OFFSET 27.56430 0.08536 1.02216
                                   CHANNELS 3 Zrotation Xrotation Yrotation
                                   End Site
                                   {
                                        OFFSET 16.74430 -0.60000 1.50291
                                   }
                              }
                         }
                    }
               }
               JOINT RightShoulder
               {
                    OFFSET -8.99000 -0.36225 -0.22000
                    CHANNELS 3 Zrotation Xrotation Yrotation
                    JOINT RightArm
                    {
                         OFFSET -10.28270 -0.00338 0.32212
                         CHANNELS 3 Zrotation Xrotation Yrotation
                         JOINT RightForeArm
                         {
                              OFFSET -32.89710 0.09914 -1.42434
                              CHANNELS 3 Zrotation Xrotation Yrotation
                              JOINT RightHand
                              {
                                   OFFSET -27.49210 0.08536 1.02216
                                   CHANNELS 3 Zrotation Xrotation Yrotation
                                   End Site
                                   {
                                        OFFSET -16.63120 -0.60000 1.50291
                                   }
                              }
                         }
                    }
               }
          }
     }
     JOINT LeftUpLeg
     {
          OFFSET 8.94580 -8.66707 0.10165
          CHANNELS 3 Zrotation Xrotation Yrotation
          JOINT LeftLeg
          {
               OFFSET -0.00000 -44.42270 1.37270
               CHANNELS 3 Zrotation Xrotation Yrotation
               JOINT LeftFoot
               {
                    OFFSET -0.25355 -42.09240 -1.46059
                    CHANNELS 3 Zrotation Xrotation Yrotation
                    JOINT LeftToes
                    {
                         OFFSET -0.04000 -4.41509 8.49910
                         CHANNELS 3 Zrotation Xrotation Yrotation
                         End Site
                         {
                              OFFSET 0.08000 -0.04745 9.77979
                         }
                    }
               }
          }
     }
     JOINT RightUpLeg
     {
          OFFSET -8.94580 -8.66707 0.10165
          CHANNELS 3 Zrotation Xrotation Yrotation
          JOINT RightLeg
          {
               OFFSET 0.00000 -44.42270 1.37270
               CHANNELS 3 Zrotation Xrotation Yrotation
               JOINT RightFoot
               {
                    OFFSET 0.25355 -42.09240 -1.46059
                    CHANNELS 3 Zrotation Xrotation Yrotation
                    JOINT RightToes
                    {
                         OFFSET 0.04000 -4.41509 8.49910
                         CHANNELS 3 Zrotation Xrotation Yrotation
                         End Site
                         {
                              OFFSET -0.08000 -0.13745 9.77979
                         }
                    }
               }
          }
     }
}
MOTION
Frames: 7
Frame Time: 0.01667
6.69621 100.49500 63.43060 -2.30702 -3.13839 -30.56710 2.89919 4.04192 0.30964 4.09531 8.30905 1.22051 -4.20295 -8.12410 13.31130 -0.00000 -0.00000 0.00000 -116.50000 -51.64670 -112.64300 -41.29180 33.42260 -62.84480 18.55140 5.29571 -24.64450 4.88287 0.26723 -0.31130 67.95380 -2.61511 88.21790 27.30560 9.00216 56.41350 -11.03860 7.10881 26.22350 3.41832 -13.05500 -12.98600 0.86180 18.40820 -1.74797 4.57323 -1.63411 -0.24697 -1.48991 -0.49846 7.84942 -8.79085 4.29003 -23.74090 -4.36235 22.42890 2.44558 9.92786 -19.03420 0.76490 -0.39971 3.95317 1.39467 
6.84812 100.55200 64.06750 -2.16586 -2.94480 -30.85470 2.75587 4.00432 0.34073 4.06795 8.21218 1.24820 -4.16003 -8.29077 13.52460 -0.00000 -0.00000 0.00000 -117.24000 -51.55300 -113.11700 -41.67430 34.09550 -62.60590 18.62600 5.27826 -24.63110 4.95271 0.26322 -0.36792 68.01580 -2.83847 88.23170 27.52600 9.31779 56.61240 -11.16340 7.06462 26.32680 3.16407 -13.26570 -13.23120 0.58896 18.97410 -0.77484 4.49127 -2.03842 -0.22438 -1.40776 -0.41959 7.34575 -9.08122 4.53980 -23.60300 -4.30270 21.78330 2.54315 10.59560 -18.65360 0.79909 -0.48662 4.16504 1.77725 
7.01043 100.62200 64.73570 -2.02771 -2.65114 -31.32640 2.61941 3.93401 0.43170 4.07093 8.04759 1.38677 -4.17384 -8.44554 13.74950 -0.00000 -0.00000 0.00000 -117.36100 -51.60990 -113.19200 -41.71910 34.39020 -62.61970 18.61670 5.28727 -24.59190 4.96282 0.26352 -0.36585 68.04170 -3.08035 88.24750 27.62950 9.61898 56.82520 -11.27260 7.02609 26.41370 2.95912 -13.41850 -13.57760 0.30244 19.36260 0.40495 4.66437 -2.34443 -0.21862 -1.27336 -0.60640 6.94465 -9.33834 4.70894 -23.42560 -4.27687 21.03190 2.80157 11.36140 -18.30880 0.84159 -0.61866 4.74611 2.21216 
7.17161 100.70300 65.41020 -1.90057 -2.27847 -31.99020 2.48220 3.83733 0.57545 4.09849 7.82749 1.62209 -4.20201 -8.54695 13.95290 -0.00000 -0.00000 0.00000 -116.95000 -51.81860 -112.93800 -41.48020 34.34900 -62.84600 18.56260 5.31078 -24.53650 4.92282 0.27117 -0.27174 68.02930 -3.33983 88.25080 27.58260 9.92291 57.04710 -11.38480 6.98560 26.51000 2.82218 -13.50160 -13.87720 0.05855 19.58480 1.56046 5.01294 -2.65418 -0.21945 -1.19616 -0.79645 6.82223 -9.54583 4.77354 -23.25220 -4.32558 20.21240 3.34134 12.10000 -17.91980 0.87226 -0.72377 5.37326 2.45945 
7.32205 100.79000 66.05870 -1.79693 -1.87027 -32.79040 2.34032 3.73448 0.74971 4.15003 7.59266 1.91000 -4.17156 -8.56019 14.07900 -0.00000 -0.00000 0.00000 -116.21400 -52.14200 -112.50700 -41.11040 34.04700 -63.16750 18.49020 5.34065 -24.47120 4.83820 0.28396 -0.10972 67.98610 -3.58416 88.25730 27.42350 10.19920 57.24890 -11.49090 6.94321 26.64010 2.76917 -13.53400 -14.07360 -0.14984 19.71410 2.57280 5.31392 -3.10025 -0.20928 -1.26552 -0.68616 7.01366 -9.69765 4.74312 -23.15440 -4.46514 19.37510 4.21392 12.74990 -17.35810 0.87101 -0.73260 5.58569 2.40070 
7.45887 100.88000 66.65530 -1.73237 -1.47979 -33.62370 2.19634 3.64922 0.92271 4.22354 7.39248 2.19008 -4.04794 -8.49042 14.08960 -0.00000 -0.00000 0.00000 -115.36000 -52.52940 -112.06000 -40.76340 33.55270 -63.46670 18.41110 5.37175 -24.40840 4.71176 0.29626 0.05734 67.93350 -3.77984 88.29320 27.23680 10.39490 57.39220 -11.56550 6.90489 26.81360 2.80050 -13.54060 -14.18820 -0.37048 19.83410 3.44209 5.38996 -3.73163 -0.17876 -1.48619 -0.16987 7.38820 -9.81016 4.64720 -23.18630 -4.67236 18.61740 5.34057 13.27420 -16.54940 0.82482 -0.61573 5.06237 2.04020 
7.58563 100.96800 67.19020 -1.71330 -1.16089 -34.37910 2.06040 3.59707 1.06368 4.30448 7.26186 2.40894 -3.86950 -8.39121 13.99200 -0.00000 -0.00000 0.00000 -114.42400 -52.93390 -111.64000 -40.48170 32.87690 -63.69710 18.33030 5.39618 -24.38830 4.55087 0.30311 0.17091 67.91750 -3.92227 88.37060 27.06270 10.50100 57.45390 -11.58090 6.88143 27.00190 2.87473 -13.52040 -14.26420 -0.61884 19.98490 4.18512 5.22615 -4.48918 -0.13388 -1.79628 0.63546 7.78452 -9.93304 4.50388 -23.34770 -4.91023 18.11460 6.49146 13.63620 -15.54550 0.73658 -0.39911 3.82489 1.45356 
